<?xml version="1.0" encoding="utf-8"?>
<!-- Generator: Adobe Illustrator 18.0.0, SVG Export Plug-In . SVG Version: 6.00 Build 0)  -->
<!DOCTYPE svg PUBLIC "-//W3C//DTD SVG 1.1//EN" "http://www.w3.org/Graphics/SVG/1.1/DTD/svg11.dtd">
<svg version="1.1" id="Camada_1" xmlns="http://www.w3.org/2000/svg" xmlns:xlink="http://www.w3.org/1999/xlink" x="0px" y="0px"
	 viewBox="0 0 131 36" enable-background="new 0 0 131 36" xml:space="preserve">
<path fill="#16A4C2" d="M0,0h131v11.1h-3V3H3v8.1H0V0z"/>
<path fill="#16A4C2" d="M9,22.2h23c0.8,0,1.5,0.7,1.5,1.5s-0.7,1.5-1.5,1.5H9c-0.8,0-1.5-0.7-1.5-1.5S8.2,22.2,9,22.2z"/>
<path fill="#16A4C2" d="M19.7,11.4c0.4,0,0.8,0.1,1.1,0.4c0.6,0.6,0.6,1.5,0,2.1l-9.6,9.7l9.6,9.7c0.6,0.6,0.6,1.5,0,2.1
	c-0.6,0.6-1.5,0.6-2.1,0L6.9,23.7l11.7-11.9C19,11.6,19.3,11.4,19.7,11.4z"/>
<g>
	<path fill="#33A8C3" d="M52.6,20.5l1,3.4c0.2,0.6,0.3,1.2,0.4,1.8h0c0.1-0.6,0.2-1.2,0.4-1.8l0.9-3.4h2.4l-2.7,7.3h-2.3l-2.7-7.3
		H52.6z"/>
	<path fill="#33A8C3" d="M69.6,24.1c0,2.7-1.9,3.9-3.9,3.9c-2.1,0-3.8-1.4-3.8-3.8c0-2.4,1.6-3.9,3.9-3.9
		C68.1,20.3,69.6,21.9,69.6,24.1z M64.3,24.2c0,1.3,0.5,2.2,1.5,2.2c0.9,0,1.5-0.9,1.5-2.2c0-1.1-0.4-2.2-1.5-2.2
		C64.7,22,64.3,23.1,64.3,24.2z"/>
	<path fill="#33A8C3" d="M74.8,17.2h2.3v10.6h-2.3V17.2z"/>
	<path fill="#33A8C3" d="M85.2,18.4v2.1h1.6v1.7h-1.6v2.7c0,0.9,0.2,1.3,0.9,1.3c0.3,0,0.5,0,0.7-0.1l0,1.7C86.5,27.9,86,28,85.3,28
		c-0.7,0-1.4-0.3-1.7-0.6c-0.4-0.4-0.6-1.1-0.6-2.2v-3h-1v-1.7h1v-1.6L85.2,18.4z"/>
	<path fill="#33A8C3" d="M96.1,27.8L96,27.1h0c-0.5,0.6-1.2,0.9-2.1,0.9c-1.5,0-2.4-1.1-2.4-2.3c0-1.9,1.7-2.8,4.3-2.8v-0.1
		c0-0.4-0.2-0.9-1.3-0.9c-0.8,0-1.5,0.3-2,0.6L92,21c0.5-0.3,1.5-0.6,2.8-0.6c2.4,0,3.2,1.4,3.2,3.2v2.5c0,0.7,0,1.4,0.1,1.8H96.1z
		 M95.8,24.4c-1.2,0-2.1,0.3-2.1,1.2c0,0.6,0.4,0.9,0.9,0.9c0.6,0,1-0.4,1.2-0.8c0-0.1,0-0.3,0-0.4V24.4z"/>
	<path fill="#33A8C3" d="M103.6,22.9c0-1.1,0-1.8-0.1-2.4h2l0.1,1.3h0.1c0.4-1.1,1.3-1.5,2-1.5c0.2,0,0.3,0,0.5,0v2.1
		c-0.2,0-0.4-0.1-0.6-0.1c-0.8,0-1.4,0.5-1.6,1.2c0,0.2,0,0.3,0,0.5v3.7h-2.3V22.9z"/>
</g>
</svg>
